PathFileType	4	(X/Y/Z)	 s01_static.trc
DataRate	CameraRate	NumFrames	NumMarkers	Units	OrigDataRate	OrigDataStartFrame	OrigNumFrames
100	100	7	52	m	100	1	200
Frame#	Time	s2			lmt5			lcal			ltoe			lmmal			llmal			lmt1			lsh1			lsh2			lsh3			lsh4			llfc			lmfc			lth1			lth2			lth3			lth4			lgt			lic			lasi			lpsi			rpsi			ric			rasi			rgt			rth1			rth2			rth3			rth4			rlfc			rsh1			rsh2			rsh4			rlmal			rmmal			rcal			rmt5			rmt1			rtoe			jug			c7			lacr			lua			llel			lfa			ldr			racr			rua			rlel			rfa			rdr			rmfc			
		X1	Y1	Z1	X2	Y2	Z2	X3	Y3	Z3	X4	Y4	Z4	X5	Y5	Z5	X6	Y6	Z6	X7	Y7	Z7	X8	Y8	Z8	X9	Y9	Z9	X10	Y10	Z10	X11	Y11	Z11	X12	Y12	Z12	X13	Y13	Z13	X14	Y14	Z14	X15	Y15	Z15	X16	Y16	Z16	X17	Y17	Z17	X18	Y18	Z18	X19	Y19	Z19	X20	Y20	Z20	X21	Y21	Z21	X22	Y22	Z22	X23	Y23	Z23	X24	Y24	Z24	X25	Y25	Z25	X26	Y26	Z26	X27	Y27	Z27	X28	Y28	Z28	X29	Y29	Z29	X30	Y30	Z30	X31	Y31	Z31	X32	Y32	Z32	X33	Y33	Z33	X34	Y34	Z34	X35	Y35	Z35	X36	Y36	Z36	X37	Y37	Z37	X38	Y38	Z38	X39	Y39	Z39	X40	Y40	Z40	X41	Y41	Z41	X42	Y42	Z42	X43	Y43	Z43	X44	Y44	Z44	X45	Y45	Z45	X46	Y46	Z46	X47	Y47	Z47	X48	Y48	Z48	X49	Y49	Z49	X50	Y50	Z50	X51	Y51	Z51	X52	Y52	Z52	
1	0.0100	0.096562	1.004091	-0.224307	0.281723	0.019567	-0.428286	0.091552	0.037854	-0.345425	0.389887	0.049876	-0.364330	0.171128	0.081831	-0.301393	0.154894	0.063532	-0.394480	0.307404	0.019518	-0.311712	0.168750	0.383899	-0.428802	0.180666	0.298425	-0.415544	0.146515	0.212293	-0.408000	0.210813	0.296887	-0.389327	0.202762	0.501995	-0.404382	0.174966	0.486473	-0.292182	0.208505	0.809400	-0.431254	0.226062	0.723164	-0.427557	0.200347	0.636649	-0.420086	0.261358	0.722893	-0.414475	0.202430	0.924233	-0.418584	0.198739	1.018264	-0.397810	0.287584	1.026387	-0.345786	0.101963	1.031588	-0.274180	0.108258	1.037675	-0.170503	0.216555	1.030929	-0.061997	0.295560	1.025904	-0.117006	0.206763	0.914991	-0.043061	0.226738	0.789741	-0.028787	0.241843	0.701820	-0.034515	0.212777	0.618003	-0.040221	0.274169	0.698448	-0.053943	0.199008	0.495827	-0.048871	0.177797	0.378605	-0.031857	0.190497	0.291167	-0.051102	0.216440	0.293965	-0.081710	0.157839	0.071827	-0.080159	0.177694	0.082356	-0.172261	0.098675	0.035380	-0.133230	0.275617	0.019768	-0.036546	0.317041	0.020909	-0.152182	0.392166	0.051282	-0.088129	0.293778	1.461304	-0.241211	0.163056	1.559735	-0.232915	0.171765	1.530995	-0.405085	0.136074	1.359007	-0.485266	0.102030	1.209772	-0.524812	0.161262	1.109579	-0.600166	0.192380	0.978362	-0.641054	0.198215	1.532803	-0.054522	0.145746	1.359659	0.027233	0.116876	1.206696	0.062459	0.178851	1.102238	0.136094	0.210349	0.975065	0.165321	0.181306	0.471099	-0.158920	
2	0.0200	0.096516	1.004105	-0.224331	0.281728	0.019573	-0.428294	0.091570	0.037795	-0.345446	0.389850	0.049928	-0.364326	0.171107	0.081816	-0.301377	0.154917	0.063528	-0.394462	0.307414	0.019511	-0.311734	0.168788	0.383876	-0.428786	0.180704	0.298424	-0.415512	0.146570	0.212288	-0.407975	0.210822	0.296888	-0.389304	0.202794	0.501983	-0.404345	0.174991	0.486402	-0.292119	0.208486	0.809384	-0.431235	0.226071	0.723158	-0.427529	0.200373	0.636651	-0.420049	0.261365	0.722877	-0.414435	0.202412	0.924235	-0.418597	0.198698	1.018259	-0.397772	0.287522	1.026367	-0.345774	0.101914	1.031579	-0.274158	0.108184	1.037738	-0.170477	0.216446	1.030913	-0.061961	0.295269	1.025771	-0.117347	0.206679	0.914996	-0.043045	0.226666	0.789733	-0.028780	0.241773	0.701816	-0.034504	0.212723	0.617989	-0.040219	0.274076	0.698436	-0.053948	0.198981	0.495844	-0.048852	0.177764	0.378598	-0.031836	0.190474	0.291181	-0.051102	0.216422	0.293971	-0.081712	0.157816	0.071888	-0.080168	0.177709	0.082425	-0.172233	0.098690	0.035414	-0.133213	0.275619	0.019760	-0.036525	0.317051	0.020927	-0.152208	0.392158	0.051256	-0.088133	0.293717	1.461287	-0.241189	0.163010	1.559723	-0.232877	0.171686	1.530952	-0.405051	0.135996	1.358981	-0.485185	0.101930	1.209755	-0.524770	0.161148	1.109563	-0.600133	0.192270	0.978331	-0.641011	0.198146	1.532791	-0.054494	0.145648	1.359641	0.027236	0.116784	1.206709	0.062485	0.178738	1.102234	0.136119	0.210245	0.975066	0.165363	0.181285	0.471087	-0.158921	
3	0.0300	0.096459	1.004072	-0.224344	0.281782	0.019511	-0.428259	0.091578	0.037776	-0.345437	0.389867	0.049915	-0.364342	0.171107	0.081782	-0.301388	0.154912	0.063533	-0.394465	0.307400	0.019506	-0.311729	0.168828	0.383896	-0.428769	0.180727	0.298435	-0.415487	0.146569	0.212311	-0.407970	0.210866	0.296862	-0.389276	0.202858	0.501975	-0.404317	0.175024	0.486369	-0.292099	0.208489	0.809374	-0.431236	0.226067	0.723195	-0.427523	0.200399	0.636646	-0.420035	0.261378	0.722912	-0.414425	0.202386	0.924220	-0.418582	0.198652	1.018278	-0.397767	0.287516	1.026379	-0.345745	0.101877	1.031571	-0.274153	0.108110	1.037716	-0.170494	0.216351	1.030956	-0.061932	0.295206	1.025794	-0.117305	0.206619	0.915015	-0.043067	0.226607	0.789752	-0.028754	0.241735	0.701819	-0.034470	0.212666	0.618004	-0.040188	0.274011	0.698438	-0.053931	0.198955	0.495843	-0.048851	0.177742	0.378580	-0.031841	0.190449	0.291171	-0.051082	0.216436	0.293986	-0.081692	0.157836	0.071883	-0.080182	0.177668	0.082444	-0.172215	0.098699	0.035444	-0.133235	0.275634	0.019754	-0.036523	0.317035	0.020912	-0.152193	0.392141	0.051242	-0.088140	0.293657	1.461283	-0.241181	0.162967	1.559713	-0.232840	0.171622	1.530936	-0.405013	0.135903	1.358941	-0.485117	0.101857	1.209753	-0.524695	0.161083	1.109534	-0.600093	0.192174	0.978277	-0.640963	0.198076	1.532799	-0.054482	0.145560	1.359628	0.027262	0.116689	1.206709	0.062497	0.178632	1.102246	0.136166	0.210106	0.975077	0.165424	0.181259	0.471061	-0.158909	
4	0.0400	0.096426	1.004076	-0.224355	0.281767	0.019531	-0.428254	0.092196	0.037337	-0.346299	0.389852	0.049910	-0.364326	0.171112	0.081806	-0.301382	0.154918	0.063532	-0.394469	0.307427	0.019526	-0.311715	0.168851	0.383921	-0.428749	0.180742	0.298414	-0.415469	0.146684	0.212341	-0.407973	0.210869	0.296810	-0.389199	0.202892	0.501970	-0.404275	0.175093	0.486473	-0.292067	0.208457	0.809386	-0.431254	0.226062	0.723143	-0.427496	0.200409	0.636633	-0.420041	0.261870	0.722196	-0.414370	0.202364	0.924224	-0.418568	0.198776	1.018287	-0.397759	0.287353	1.026246	-0.345527	0.101825	1.031565	-0.274153	0.108660	1.037539	-0.171019	0.216177	1.030892	-0.061955	0.295151	1.025781	-0.117291	0.206526	0.915017	-0.043040	0.226522	0.789747	-0.028744	0.240710	0.700744	-0.035446	0.212587	0.618001	-0.040193	0.273929	0.698438	-0.053903	0.198928	0.495828	-0.048840	0.177724	0.378592	-0.031816	0.190463	0.291170	-0.051019	0.216385	0.293887	-0.081780	0.157825	0.071857	-0.079958	0.177682	0.082417	-0.172208	0.098702	0.035389	-0.133208	0.275614	0.019761	-0.036521	0.317085	0.020966	-0.152194	0.392145	0.051247	-0.088126	0.293573	1.461274	-0.241147	0.162751	1.559962	-0.232544	0.171539	1.530866	-0.404985	0.135821	1.358892	-0.485055	0.101774	1.209724	-0.524628	0.160979	1.109509	-0.600056	0.192251	0.978372	-0.641006	0.198011	1.532808	-0.054459	0.145484	1.359627	0.027279	0.116579	1.206716	0.062514	0.178549	1.102259	0.136218	0.209974	0.975076	0.165480	0.181219	0.471087	-0.158887	
5	0.0500	0.096351	1.003983	-0.224430	0.281821	0.019559	-0.428231	0.092177	0.037432	-0.346316	0.389927	0.049939	-0.364318	0.171167	0.081793	-0.301421	0.155005	0.063596	-0.394720	0.307451	0.019493	-0.311726	0.168891	0.383928	-0.428701	0.180806	0.298478	-0.415395	0.146735	0.212418	-0.407890	0.210902	0.296847	-0.389156	0.202898	0.501963	-0.404234	0.175169	0.486285	-0.292042	0.208416	0.809319	-0.431269	0.225981	0.723089	-0.427477	0.200363	0.636588	-0.420009	0.261835	0.722167	-0.414338	0.202277	0.924113	-0.418580	0.198688	1.018180	-0.397756	0.287288	1.026301	-0.345491	0.101749	1.031488	-0.274175	0.108535	1.037527	-0.170994	0.216177	1.030886	-0.061885	0.295312	1.025896	-0.116920	0.206386	0.914866	-0.042960	0.226503	0.789756	-0.028709	0.240730	0.700845	-0.035466	0.212482	0.618081	-0.040134	0.273916	0.698473	-0.053915	0.198842	0.495839	-0.048822	0.177690	0.378585	-0.031789	0.190445	0.291180	-0.051047	0.216360	0.293877	-0.081799	0.157795	0.071846	-0.079897	0.177796	0.082587	-0.172102	0.098615	0.035592	-0.133151	0.275648	0.019723	-0.036528	0.317075	0.020975	-0.152200	0.392160	0.051273	-0.088108	0.293579	1.461203	-0.241131	0.162647	1.560002	-0.232446	0.171480	1.530965	-0.404872	0.135769	1.358920	-0.484977	0.101701	1.209695	-0.524622	0.160897	1.109479	-0.599971	0.192129	0.978279	-0.640939	0.197925	1.532728	-0.054388	0.145483	1.359573	0.027235	0.116484	1.206657	0.062576	0.178441	1.102232	0.136221	0.209680	0.974936	0.165546	0.181175	0.471028	-0.158874	
6	0.0600	0.096318	1.003944	-0.224451	0.281834	0.019541	-0.428233	0.092197	0.037454	-0.346309	0.389932	0.049918	-0.364329	0.171185	0.081812	-0.301407	0.155014	0.063587	-0.394679	0.307451	0.019476	-0.311737	0.168884	0.383935	-0.428697	0.180803	0.298493	-0.415365	0.146705	0.212410	-0.407882	0.210902	0.296817	-0.389105	0.202914	0.501979	-0.404205	0.175140	0.486447	-0.292083	0.208351	0.809296	-0.431257	0.225962	0.723101	-0.427463	0.200336	0.636556	-0.420000	0.261846	0.722176	-0.414335	0.202231	0.924127	-0.418574	0.198625	1.018173	-0.397739	0.287197	1.026286	-0.345419	0.101704	1.031475	-0.274149	0.108491	1.037507	-0.170994	0.216096	1.030865	-0.061848	0.295224	1.025875	-0.116940	0.206285	0.914791	-0.042997	0.226394	0.789759	-0.028690	0.240642	0.700875	-0.035464	0.212408	0.618087	-0.040115	0.273859	0.698505	-0.053915	0.198774	0.495839	-0.048791	0.177658	0.378574	-0.031795	0.190413	0.291182	-0.051051	0.216337	0.293883	-0.081774	0.157781	0.071865	-0.079816	0.177853	0.082636	-0.172026	0.098606	0.035641	-0.133137	0.275663	0.019733	-0.036523	0.317074	0.020966	-0.152181	0.392151	0.051270	-0.088116	0.293492	1.461204	-0.241114	0.162587	1.560023	-0.232392	0.171412	1.530969	-0.404842	0.135707	1.358918	-0.484918	0.101629	1.209667	-0.524521	0.160829	1.109443	-0.599903	0.192008	0.978240	-0.640869	0.197830	1.532691	-0.054376	0.145406	1.359547	0.027224	0.116377	1.206657	0.062639	0.178353	1.102221	0.136234	0.209507	0.974891	0.165574	0.181094	0.471049	-0.158880	
7	0.0700	0.096261	1.003912	-0.224400	0.281839	0.019572	-0.428216	0.092204	0.037478	-0.346288	0.389911	0.049911	-0.364307	0.171200	0.081795	-0.301410	0.155035	0.063541	-0.394662	0.307457	0.019485	-0.311733	0.168930	0.383922	-0.428697	0.180850	0.298446	-0.415360	0.146721	0.212406	-0.407862	0.210947	0.296848	-0.389093	0.202918	0.501973	-0.404194	0.175075	0.486369	-0.292050	0.208375	0.809297	-0.431209	0.225918	0.723092	-0.427439	0.200353	0.636547	-0.419977	0.261840	0.722168	-0.414287	0.202199	0.924103	-0.418548	0.198566	1.018159	-0.397737	0.287177	1.026275	-0.345424	0.101644	1.031452	-0.274124	0.108415	1.037477	-0.170945	0.216030	1.030809	-0.061861	0.295161	1.025863	-0.116949	0.206197	0.914791	-0.042970	0.226340	0.789753	-0.028660	0.240579	0.700887	-0.035425	0.212336	0.618108	-0.040072	0.273796	0.698506	-0.053898	0.198721	0.495860	-0.048779	0.177643	0.378581	-0.031752	0.190402	0.291162	-0.051036	0.216328	0.293870	-0.081776	0.157781	0.071868	-0.079806	0.177862	0.082681	-0.172037	0.098579	0.035659	-0.133178	0.275665	0.019714	-0.036522	0.317089	0.020983	-0.152201	0.392150	0.051273	-0.088111	0.293450	1.461146	-0.241071	0.162556	1.560032	-0.232358	0.171359	1.530963	-0.404811	0.135628	1.358873	-0.484838	0.101536	1.209659	-0.524446	0.160733	1.109405	-0.599800	0.191884	0.978202	-0.640813	0.197746	1.532667	-0.054352	0.145301	1.359540	0.027237	0.116290	1.206634	0.062653	0.178255	1.102212	0.136255	0.209382	0.974868	0.165598	0.181057	0.471036	-0.158891	
